<?xml version="1.0" encoding="UTF-8"?>
<svg width="154.24mm" height="71.919mm" version="1.1" viewBox="0 0 154.24 71.919" xmlns="http://www.w3.org/2000/svg" xmlns:cc="http://creativecommons.org/ns#" xmlns:dc="http://purl.org/dc/elements/1.1/" xmlns:rdf="http://www.w3.org/1999/02/22-rdf-syntax-ns#">
 <metadata>
  <rdf:RDF>
   <cc:Work rdf:about="">
    <dc:format>image/svg+xml</dc:format>
    <dc:type rdf:resource="http://purl.org/dc/dcmitype/StillImage"/>
    <dc:title/>
   </cc:Work>
  </rdf:RDF>
 </metadata>
 <g transform="translate(-26.069 -137.33)">
  <circle cx="99.483" cy="179.92" r="17.481" fill="#666" fill-rule="evenodd" stop-color="#000000" stroke="#333" stroke-width="4.151" style="font-variation-settings:normal"/>
  <circle cx="99.483" cy="179.92" r="9.5439" fill="#333" fill-rule="evenodd" stop-color="#000000" stroke-width=".082224" style="font-variation-settings:normal"/>
  <path d="m96.103 155.91a27.046 24.006 0 0 0-27.046 24.006 27.046 24.006 0 0 0 27.046 24.006 27.046 24.006 0 0 0 3.3808-0.18833 27.046 24.006 0 0 1-23.666-23.818 27.046 24.006 0 0 1 23.666-23.818 27.046 24.006 0 0 0-3.3808-0.18833zm3.3808 0.18833a27.046 24.006 0 0 1 23.666 23.818 27.046 24.006 0 0 1-23.666 23.818 27.046 24.006 0 0 0 3.3808 0.18833 27.046 24.006 0 0 0 27.046-24.006 27.046 24.006 0 0 0-27.046-24.006 27.046 24.006 0 0 0-3.3808 0.18833z" fill="#ccc" stop-color="#000000" style="font-variation-settings:normal"/>
  <path d="m94.633 150.57a38.806 29.34 0 0 0-38.806 29.34 38.806 29.34 0 0 0 38.806 29.34 38.806 29.34 0 0 0 4.8507-0.23018 38.806 29.34 0 0 1-33.955-29.109 38.806 29.34 0 0 1 33.955-29.109 38.806 29.34 0 0 0-4.8507-0.23017zm4.8507 0.23017a38.806 29.34 0 0 1 33.955 29.109 38.806 29.34 0 0 1-33.955 29.109 38.806 29.34 0 0 0 4.8507 0.23018 38.806 29.34 0 0 0 38.806-29.34 38.806 29.34 0 0 0-38.806-29.34 38.806 29.34 0 0 0-4.8507 0.23017z" fill="#808080" stop-color="#000000" style="font-variation-settings:normal"/>
  <path d="m26.906 183.93c2.659-1.4871 6.7569-5.3306 10.506-9.8539 0.69869-0.84293 2.1748-2.7627 3.2803-4.2662 4.4862-6.1015 7.6152-9.657 12.326-14.006 5.8487-5.3996 11.07-8.919 17.83-12.017 8.5265-3.9081 17.413-5.9033 28.683-6.4398 2.5314-0.12051 7.8078 0.39345 12.056 1.1743 11.428 2.1005 21.087 6.5688 32.573 15.068 5.8016 4.2928 14.269 11.401 22.143 18.588 6.7227 6.1364 10.202 8.7364 12.869 9.6155 0.46376 0.15289 0.93263 0.3075 1.0419 0.34358 0.36471 0.12041-0.41546 0.2521-1.569 0.26485-3.1687 0.0351-8.5788-1.8345-13.004-4.4937-0.61935-0.37217-2.6762-1.8166-4.5707-3.2098-14.548-10.698-24.464-16.955-33.744-21.289-11.202-5.2321-19.823-7.1669-29.783-6.6839-14.504 0.70332-24.508 4.3395-34.676 12.604-2.2107 1.7969-6.4295 5.8015-10.757 10.211-5.7317 5.8404-8.3364 8.3431-9.8321 9.4472-4.2267 3.1203-9.7605 5.1617-14.489 5.3447l-1.7223 0.0666z" fill="#3993dd" stop-color="#000000" style="font-variation-settings:normal"/>
 </g>
</svg>
